<?xml version="1.0" encoding="UTF-8" standalone="no"?>
<svg
   xmlns:dc="http://purl.org/dc/elements/1.1/"
   xmlns:cc="http://creativecommons.org/ns#"
   xmlns:rdf="http://www.w3.org/1999/02/22-rdf-syntax-ns#"
   xmlns:svg="http://www.w3.org/2000/svg"
   xmlns="http://www.w3.org/2000/svg"
   viewBox="0 0 302.36267 188.976"
   height="100"
   width="302.36267"
   xml:space="preserve"
   id="svg2"
   version="1.1"><metadata
     id="metadata8"><rdf:RDF><cc:Work
         rdf:about=""><dc:format>image/svg+xml</dc:format><dc:type
           rdf:resource="http://purl.org/dc/dcmitype/StillImage" /></cc:Work></rdf:RDF></metadata><defs
     id="defs6"><clipPath
       id="clipPath20"
       clipPathUnits="userSpaceOnUse"><path
         id="path18"
         d="M 0,141.732 H 226.772 V 0 H 0 Z" /></clipPath></defs><g
     transform="matrix(1.3333333,0,0,-1.3333333,0,188.976)"
     id="g10"><path
       id="path12"
       style="fill:#231f20;fill-opacity:1;fill-rule:nonzero;stroke:none"
       d="M 0,0 H 226.771 V 141.732 H 0 Z" /><g
       id="g14"><g
         clip-path="url(#clipPath20)"
         id="g16"><g
           transform="translate(38.4536,40.0453)"
           id="g22"><path
             id="path24"
             style="fill:#ffffff;fill-opacity:1;fill-rule:nonzero;stroke:none"
             d="M 0,0 C 0,-0.559 -0.101,-1.03 -0.303,-1.415 -0.505,-1.8 -0.757,-2.112 -1.058,-2.353 -1.36,-2.594 -1.688,-2.767 -2.042,-2.871 -2.396,-2.977 -2.726,-3.029 -3.03,-3.029 h -6.923 v 2.158 h 6.923 c 0.294,0 0.511,0.074 0.652,0.225 0.141,0.148 0.211,0.365 0.211,0.646 V 1.835 H -9.953 V 4.01 h 7.786 v 1.818 c 0,0.592 -0.287,0.888 -0.863,0.888 h -6.923 v 2.158 h 6.923 c 0.371,0 0.703,-0.047 0.996,-0.142 0.294,-0.093 0.552,-0.219 0.777,-0.377 0.223,-0.158 0.416,-0.338 0.576,-0.543 0.161,-0.206 0.291,-0.419 0.39,-0.644 0.1,-0.224 0.173,-0.451 0.22,-0.681 C -0.023,6.258 0,6.043 0,5.844 Z" /></g><g
           transform="translate(50.2661,43.9388)"
           id="g26"><path
             id="path28"
             style="fill:#ffffff;fill-opacity:1;fill-rule:nonzero;stroke:none"
             d="M 0,0 C 0,0.421 -0.068,0.806 -0.203,1.153 -0.339,1.503 -0.531,1.8 -0.78,2.046 -1.029,2.292 -1.327,2.483 -1.673,2.619 -2.019,2.755 -2.402,2.822 -2.822,2.822 h -4.757 v -7.587 h 4.757 c 0.42,0 0.803,0.068 1.149,0.203 0.346,0.136 0.644,0.328 0.893,0.574 0.249,0.246 0.441,0.542 0.577,0.887 C -0.068,-2.755 0,-2.368 0,-1.942 Z m 2.158,-1.942 c 0,-0.725 -0.126,-1.392 -0.378,-2 C 1.529,-4.552 1.182,-5.076 0.739,-5.516 0.296,-5.956 -0.229,-6.3 -0.838,-6.55 -1.447,-6.798 -2.108,-6.923 -2.822,-6.923 h -5.827 c -0.155,0 -0.299,0.027 -0.432,0.083 -0.133,0.056 -0.248,0.132 -0.345,0.229 -0.096,0.096 -0.173,0.212 -0.228,0.344 -0.055,0.133 -0.083,0.277 -0.083,0.432 v 9.729 c 0,0.148 0.028,0.29 0.083,0.422 0.055,0.133 0.132,0.249 0.228,0.349 0.097,0.1 0.212,0.177 0.345,0.232 0.133,0.056 0.277,0.083 0.432,0.083 h 5.827 c 0.714,0 1.375,-0.124 1.984,-0.374 C -0.229,4.358 0.296,4.014 0.739,3.573 1.182,3.134 1.529,2.607 1.78,1.996 2.032,1.385 2.158,0.72 2.158,0 Z" /></g><g
           transform="translate(71.1689,38.1039)"
           id="g30"><path
             id="path32"
             style="fill:#ffffff;fill-opacity:1;fill-rule:nonzero;stroke:none"
             d="M 0,0 C 0,-0.155 -0.028,-0.299 -0.083,-0.432 -0.138,-0.564 -0.214,-0.68 -0.312,-0.776 -0.408,-0.873 -0.523,-0.949 -0.656,-1.005 -0.789,-1.061 -0.933,-1.088 -1.087,-1.088 h -7.787 c -0.199,0 -0.413,0.024 -0.643,0.07 -0.23,0.047 -0.457,0.122 -0.68,0.221 -0.225,0.1 -0.439,0.228 -0.644,0.386 -0.204,0.157 -0.386,0.349 -0.544,0.572 -0.157,0.225 -0.283,0.485 -0.377,0.78 -0.094,0.296 -0.141,0.63 -0.141,1 v 5.844 c 0,0.199 0.023,0.414 0.07,0.644 0.047,0.229 0.121,0.457 0.22,0.68 0.1,0.225 0.23,0.439 0.39,0.644 0.161,0.205 0.353,0.386 0.577,0.544 0.224,0.157 0.483,0.283 0.776,0.377 0.294,0.095 0.626,0.141 0.996,0.141 H -0.1 V 8.657 H -8.874 C -9.156,8.657 -9.372,8.582 -9.521,8.434 -9.67,8.283 -9.745,8.063 -9.745,7.77 V 1.941 c 0,-0.276 0.076,-0.49 0.228,-0.642 C -9.365,1.146 -9.15,1.07 -8.874,1.07 h 6.716 v 2.706 h -5.744 v 2.175 h 6.815 c 0.154,0 0.298,-0.029 0.431,-0.087 0.133,-0.058 0.248,-0.137 0.344,-0.237 0.098,-0.1 0.174,-0.214 0.229,-0.344 C -0.028,5.153 0,5.014 0,4.863 Z" /></g><g
           transform="translate(84.7583,38.1039)"
           id="g34"><path
             id="path36"
             style="fill:#ffffff;fill-opacity:1;fill-rule:nonzero;stroke:none"
             d="m 0,0 c 0,-0.155 -0.028,-0.299 -0.083,-0.432 -0.055,-0.132 -0.133,-0.248 -0.232,-0.344 -0.1,-0.097 -0.216,-0.173 -0.349,-0.229 -0.133,-0.056 -0.274,-0.083 -0.423,-0.083 h -4.865 c -0.459,0 -0.924,0.05 -1.394,0.15 -0.47,0.099 -0.925,0.252 -1.366,0.46 -0.439,0.207 -0.853,0.472 -1.241,0.792 -0.387,0.322 -0.726,0.703 -1.017,1.142 -0.29,0.44 -0.518,0.943 -0.684,1.511 -0.166,0.567 -0.249,1.199 -0.249,1.896 v 5.952 h 2.158 V 4.863 c 0,-0.608 0.084,-1.123 0.253,-1.543 0.169,-0.421 0.383,-0.772 0.643,-1.054 0.261,-0.283 0.545,-0.504 0.855,-0.664 0.31,-0.161 0.605,-0.28 0.885,-0.358 C -6.83,1.167 -6.584,1.119 -6.371,1.1 -6.158,1.08 -6.018,1.07 -5.952,1.07 h 3.794 v 9.745 H 0 Z" /></g><path
           id="path38"
           style="fill:#ffffff;fill-opacity:1;fill-rule:nonzero;stroke:none"
           d="m 89.117,37.016 h -2.158 v 11.903 h 2.158 z" /><g
           transform="translate(101.0376,43.9388)"
           id="g40"><path
             id="path42"
             style="fill:#ffffff;fill-opacity:1;fill-rule:nonzero;stroke:none"
             d="M 0,0 C 0,0.421 -0.068,0.806 -0.203,1.153 -0.339,1.503 -0.531,1.8 -0.78,2.046 -1.029,2.292 -1.327,2.483 -1.673,2.619 -2.019,2.755 -2.402,2.822 -2.822,2.822 h -4.757 v -7.587 h 4.757 c 0.42,0 0.803,0.068 1.149,0.203 0.346,0.136 0.644,0.328 0.893,0.574 0.249,0.246 0.441,0.542 0.577,0.887 C -0.068,-2.755 0,-2.368 0,-1.942 Z m 2.158,-1.942 c 0,-0.725 -0.126,-1.392 -0.378,-2 C 1.529,-4.552 1.182,-5.076 0.739,-5.516 0.296,-5.956 -0.229,-6.3 -0.838,-6.55 -1.447,-6.798 -2.108,-6.923 -2.822,-6.923 h -5.827 c -0.155,0 -0.299,0.027 -0.432,0.083 -0.133,0.056 -0.248,0.132 -0.345,0.229 -0.096,0.096 -0.173,0.212 -0.228,0.344 -0.055,0.133 -0.083,0.277 -0.083,0.432 v 9.729 c 0,0.148 0.028,0.29 0.083,0.422 0.055,0.133 0.132,0.249 0.228,0.349 0.097,0.1 0.212,0.177 0.345,0.232 0.133,0.056 0.277,0.083 0.432,0.083 h 5.827 c 0.714,0 1.375,-0.124 1.984,-0.374 C -0.229,4.358 0.296,4.014 0.739,3.573 1.182,3.134 1.529,2.607 1.78,1.996 2.032,1.385 2.158,0.72 2.158,0 Z" /></g><path
           id="path44"
           style="fill:#ffffff;fill-opacity:1;fill-rule:nonzero;stroke:none"
           d="m 114.776,41.88 h -6.815 v 2.175 h 6.815 z m 0.971,-4.864 h -7.786 c -0.299,0 -0.626,0.053 -0.98,0.158 -0.354,0.105 -0.682,0.278 -0.983,0.519 -0.302,0.24 -0.554,0.552 -0.755,0.937 -0.202,0.385 -0.304,0.857 -0.304,1.415 v 7.787 c 0,0.149 0.028,0.29 0.083,0.423 0.056,0.133 0.132,0.249 0.228,0.349 0.098,0.099 0.212,0.177 0.345,0.232 0.133,0.056 0.277,0.083 0.432,0.083 h 9.72 v -2.158 h -8.649 v -6.716 c 0,-0.281 0.074,-0.498 0.224,-0.646 0.149,-0.151 0.368,-0.225 0.656,-0.225 h 7.769 z" /><g
           transform="translate(132.4336,43.9388)"
           id="g46"><path
             id="path48"
             style="fill:#ffffff;fill-opacity:1;fill-rule:nonzero;stroke:none"
             d="M 0,0 C 0,0.421 -0.067,0.806 -0.203,1.153 -0.339,1.503 -0.531,1.8 -0.78,2.046 -1.029,2.292 -1.327,2.483 -1.673,2.619 -2.019,2.755 -2.401,2.822 -2.822,2.822 h -4.757 v -7.587 h 4.757 c 0.421,0 0.803,0.068 1.149,0.203 0.346,0.136 0.644,0.328 0.893,0.574 0.249,0.246 0.441,0.542 0.577,0.887 C -0.067,-2.755 0,-2.368 0,-1.942 Z m 2.158,-1.942 c 0,-0.725 -0.126,-1.392 -0.378,-2 C 1.528,-4.552 1.182,-5.076 0.739,-5.516 0.296,-5.956 -0.229,-6.3 -0.839,-6.55 -1.447,-6.798 -2.108,-6.923 -2.822,-6.923 h -5.827 c -0.156,0 -0.299,0.027 -0.432,0.083 -0.133,0.056 -0.248,0.132 -0.345,0.229 -0.096,0.096 -0.173,0.212 -0.227,0.344 -0.056,0.133 -0.084,0.277 -0.084,0.432 v 9.729 c 0,0.148 0.028,0.29 0.084,0.422 0.054,0.133 0.131,0.249 0.227,0.349 0.097,0.1 0.212,0.177 0.345,0.232 0.133,0.056 0.276,0.083 0.432,0.083 h 5.827 c 0.714,0 1.375,-0.124 1.983,-0.374 C -0.229,4.358 0.296,4.014 0.739,3.573 1.182,3.134 1.528,2.607 1.78,1.996 2.032,1.385 2.158,0.72 2.158,0 Z" /></g><path
           id="path50"
           style="fill:#ffffff;fill-opacity:1;fill-rule:nonzero;stroke:none"
           d="m 146.172,41.88 h -6.815 v 2.175 h 6.815 z m 0.972,-4.864 h -7.788 c -0.298,0 -0.625,0.053 -0.978,0.158 -0.355,0.105 -0.683,0.278 -0.984,0.519 -0.302,0.24 -0.553,0.552 -0.755,0.937 -0.202,0.385 -0.304,0.857 -0.304,1.415 v 7.787 c 0,0.149 0.028,0.29 0.084,0.423 0.055,0.133 0.131,0.249 0.227,0.349 0.097,0.099 0.212,0.177 0.345,0.232 0.133,0.056 0.277,0.083 0.432,0.083 h 9.721 v -2.158 h -8.651 v -6.716 c 0,-0.281 0.075,-0.498 0.225,-0.646 0.149,-0.151 0.368,-0.225 0.656,-0.225 h 7.77 z" /><g
           transform="translate(160.7988,37.9378)"
           id="g52"><path
             id="path54"
             style="fill:#ffffff;fill-opacity:1;fill-rule:nonzero;stroke:none"
             d="m 0,0 c 0,-0.155 -0.029,-0.299 -0.087,-0.432 -0.059,-0.132 -0.136,-0.248 -0.232,-0.344 -0.097,-0.097 -0.212,-0.173 -0.345,-0.229 -0.133,-0.056 -0.273,-0.083 -0.424,-0.083 -0.133,0 -0.266,0.026 -0.402,0.074 -0.136,0.051 -0.256,0.131 -0.362,0.242 l -7.884,8.234 v -8.384 h -2.159 v 10.983 c 0,0.22 0.062,0.421 0.187,0.601 0.124,0.18 0.283,0.314 0.478,0.402 0.204,0.083 0.414,0.104 0.63,0.063 0.215,-0.042 0.401,-0.143 0.556,-0.303 l 7.886,-8.226 v 8.383 H 0 Z" /></g><g
           transform="translate(173.7402,46.7611)"
           id="g56"><path
             id="path58"
             style="fill:#ffffff;fill-opacity:1;fill-rule:nonzero;stroke:none"
             d="M 0,0 H -4.757 V -9.745 H -6.915 V 0 H -11.68 V 2.158 H 0 Z" /></g><g
           transform="translate(176.5215,42.096)"
           id="g60"><path
             id="path62"
             style="fill:#ffffff;fill-opacity:1;fill-rule:nonzero;stroke:none"
             d="M 0,0 H 7.587 V 4.665 H 3.793 C 3.727,4.665 3.587,4.655 3.374,4.636 3.161,4.616 2.915,4.568 2.636,4.49 2.356,4.413 2.062,4.294 1.752,4.134 1.441,3.974 1.156,3.752 0.896,3.47 0.637,3.188 0.422,2.835 0.253,2.411 0.084,1.988 0,1.475 0,0.871 Z M 9.745,-5.08 H 7.587 v 2.922 H 0 V -5.08 h -2.158 v 5.951 c 0,0.869 0.149,1.669 0.448,2.4 0.299,0.73 0.714,1.358 1.245,1.883 0.531,0.527 1.159,0.936 1.885,1.229 0.725,0.294 1.516,0.44 2.373,0.44 H 8.658 C 8.807,6.823 8.948,6.796 9.081,6.74 9.214,6.685 9.33,6.607 9.43,6.508 9.529,6.408 9.606,6.292 9.662,6.159 9.718,6.026 9.745,5.885 9.745,5.736 Z" /></g><g
           transform="translate(199.3828,37.016)"
           id="g64"><path
             id="path66"
             style="fill:#ffffff;fill-opacity:1;fill-rule:nonzero;stroke:none"
             d="m 0,0 h -9.845 c -0.155,0 -0.299,0.027 -0.431,0.083 -0.133,0.056 -0.248,0.132 -0.345,0.229 -0.097,0.096 -0.173,0.211 -0.229,0.344 -0.054,0.133 -0.082,0.277 -0.082,0.432 v 10.815 h 2.159 V 2.158 l 8.773,0 z" /></g><g
           transform="translate(55.2109,21.1556)"
           id="g68"><path
             id="path70"
             style="fill:#ffffff;fill-opacity:1;fill-rule:nonzero;stroke:none"
             d="M 0,0 H 0.44 C 0.888,0 1.223,0.019 1.445,0.055 1.667,0.09 1.842,0.152 1.971,0.242 2.129,0.346 2.25,0.485 2.336,0.661 2.422,0.837 2.465,1.03 2.465,1.241 2.465,1.492 2.414,1.71 2.31,1.896 2.206,2.083 2.057,2.228 1.864,2.332 1.742,2.393 1.603,2.438 1.448,2.466 1.292,2.494 1.085,2.509 0.827,2.509 H 0.44 0 Z m 0,3.476 h 0.489 c 0.609,0 1.039,0.083 1.292,0.25 0.252,0.166 0.378,0.446 0.378,0.84 0,0.43 -0.116,0.731 -0.349,0.905 -0.233,0.174 -0.673,0.26 -1.321,0.26 H 0 Z M -1.251,-1.068 V 6.795 H 0.73 c 0.566,0 0.984,-0.03 1.255,-0.092 0.27,-0.06 0.5,-0.16 0.69,-0.301 C 2.918,6.224 3.107,5.989 3.242,5.699 3.375,5.409 3.443,5.089 3.443,4.738 3.443,4.318 3.346,3.969 3.153,3.688 2.959,3.406 2.678,3.211 2.31,3.1 2.768,3.028 3.128,2.819 3.392,2.474 3.655,2.128 3.787,1.692 3.787,1.166 3.787,0.848 3.731,0.545 3.62,0.258 3.509,-0.028 3.352,-0.271 3.147,-0.473 2.933,-0.69 2.666,-0.845 2.347,-0.934 2.028,-1.023 1.493,-1.068 0.741,-1.068 Z" /></g><g
           transform="translate(61.5161,17.6917)"
           id="g72"><path
             id="path74"
             style="fill:#ffffff;fill-opacity:1;fill-rule:nonzero;stroke:none"
             d="M 0,0 H -1.198 L 0.199,2.836 -1.67,7.487 h 1.289 L 0.553,4.851 C 0.607,4.688 0.654,4.525 0.696,4.358 0.737,4.192 0.77,4.022 0.795,3.851 0.841,4.03 0.953,4.314 1.128,4.705 L 1.155,4.77 2.412,7.487 h 1.262 z" /></g><g
           transform="translate(73.6807,22.6497)"
           id="g76"><path
             id="path78"
             style="fill:#ffffff;fill-opacity:1;fill-rule:nonzero;stroke:none"
             d="m 0,0 c 0,0.525 -0.123,0.936 -0.368,1.229 -0.245,0.294 -0.588,0.441 -1.028,0.441 -0.441,0 -0.787,-0.151 -1.04,-0.454 -0.252,-0.303 -0.378,-0.722 -0.378,-1.259 0,-0.541 0.121,-0.958 0.365,-1.252 0.243,-0.294 0.587,-0.44 1.031,-0.44 0.422,0 0.765,0.158 1.026,0.475 C -0.131,-0.943 0,-0.523 0,0 m -0.032,5.763 h 1.165 v -8.326 h -1.165 v 0.661 C -0.24,-2.195 -0.482,-2.414 -0.76,-2.557 -1.038,-2.7 -1.355,-2.771 -1.713,-2.771 c -0.72,0 -1.287,0.246 -1.701,0.738 -0.413,0.492 -0.62,1.166 -0.62,2.021 0,0.814 0.212,1.47 0.634,1.969 0.422,0.5 0.974,0.75 1.654,0.75 0.416,0 0.771,-0.087 1.067,-0.261 0.295,-0.174 0.511,-0.424 0.647,-0.749 z" /></g><g
           transform="translate(80.5605,23.2455)"
           id="g80"><path
             id="path82"
             style="fill:#ffffff;fill-opacity:1;fill-rule:nonzero;stroke:none"
             d="M 0,0 C -0.046,0.365 -0.186,0.644 -0.419,0.835 -0.652,1.026 -0.97,1.123 -1.375,1.123 -1.758,1.123 -2.066,1.029 -2.299,0.844 -2.532,0.657 -2.694,0.376 -2.788,0 Z m 1.208,-0.784 h -4.071 c 0.029,-0.477 0.17,-0.848 0.425,-1.114 0.254,-0.267 0.592,-0.401 1.015,-0.401 0.376,0 0.689,0.079 0.94,0.236 0.25,0.158 0.469,0.413 0.655,0.763 L 1.155,-1.848 C 0.868,-2.359 0.514,-2.741 0.091,-2.992 c -0.422,-0.25 -0.918,-0.375 -1.487,-0.375 -0.817,0 -1.467,0.248 -1.95,0.746 -0.484,0.498 -0.725,1.162 -0.725,1.992 0,0.799 0.25,1.455 0.749,1.969 0.5,0.514 1.141,0.771 1.926,0.771 0.819,0 1.458,-0.235 1.917,-0.704 0.458,-0.469 0.687,-1.126 0.687,-1.971 z" /></g><g
           transform="translate(83.4233,20.0872)"
           id="g84"><path
             id="path86"
             style="fill:#ffffff;fill-opacity:1;fill-rule:nonzero;stroke:none"
             d="M 0,0 V 5.092 H 1.096 V 4.26 C 1.329,4.61 1.603,4.866 1.917,5.027 2.232,5.188 2.616,5.27 3.067,5.27 3.446,5.27 3.77,5.209 4.036,5.089 4.303,4.969 4.512,4.791 4.662,4.555 4.751,4.415 4.816,4.252 4.855,4.066 4.895,3.88 4.915,3.554 4.915,3.088 V 0 H 3.738 V 2.615 C 3.738,3.285 3.657,3.73 3.494,3.95 3.331,4.171 3.042,4.281 2.626,4.281 2.354,4.281 2.112,4.23 1.898,4.131 1.686,4.03 1.518,3.889 1.396,3.706 1.311,3.584 1.25,3.428 1.217,3.236 1.183,3.045 1.166,2.739 1.166,2.32 V 0 Z" /></g><g
           transform="translate(90.604,20.0872)"
           id="g88"><path
             id="path90"
             style="fill:#ffffff;fill-opacity:1;fill-rule:nonzero;stroke:none"
             d="M 0,0 V 4.071 H -0.892 V 5.092 H 0 V 7.02 H 1.166 V 5.092 H 2.057 V 4.071 H 1.166 V 0 Z" /></g><path
           id="path92"
           style="fill:#ffffff;fill-opacity:1;fill-rule:nonzero;stroke:none"
           d="m 94.159,25.179 h 1.166 v -5.092 h -1.166 z m -0.156,2.202 c 0,0.197 0.073,0.367 0.218,0.511 0.145,0.143 0.318,0.215 0.518,0.215 0.208,0 0.381,-0.07 0.519,-0.207 0.138,-0.138 0.206,-0.311 0.206,-0.519 0,-0.208 -0.069,-0.382 -0.209,-0.523 -0.14,-0.142 -0.312,-0.212 -0.516,-0.212 -0.2,0 -0.373,0.072 -0.518,0.217 -0.145,0.145 -0.218,0.318 -0.218,0.518" /><g
           transform="translate(96.8442,21.0111)"
           id="g94"><path
             id="path96"
             style="fill:#ffffff;fill-opacity:1;fill-rule:nonzero;stroke:none"
             d="m 0,0 0.967,0.526 c 0.072,-0.254 0.204,-0.447 0.397,-0.58 0.194,-0.133 0.443,-0.198 0.747,-0.198 0.261,0 0.466,0.06 0.615,0.18 0.149,0.12 0.223,0.283 0.223,0.491 0,0.275 -0.265,0.512 -0.795,0.709 C 1.975,1.192 1.837,1.246 1.74,1.289 1.196,1.515 0.815,1.744 0.599,1.977 0.382,2.209 0.274,2.492 0.274,2.825 c 0,0.455 0.178,0.823 0.534,1.107 0.357,0.283 0.828,0.423 1.416,0.423 0.394,0 0.731,-0.072 1.012,-0.216 C 3.517,3.993 3.722,3.787 3.851,3.518 L 3.024,2.949 C 2.963,3.109 2.856,3.238 2.705,3.333 2.552,3.428 2.376,3.475 2.175,3.475 1.953,3.475 1.775,3.422 1.641,3.316 1.506,3.211 1.439,3.07 1.439,2.895 1.439,2.63 1.74,2.389 2.342,2.17 2.532,2.102 2.678,2.047 2.782,2.004 3.251,1.817 3.587,1.606 3.79,1.372 3.992,1.138 4.093,0.845 4.093,0.494 4.093,-0.015 3.908,-0.413 3.54,-0.701 3.171,-0.989 2.662,-1.133 2.014,-1.133 1.517,-1.133 1.103,-1.04 0.773,-0.854 0.444,-0.668 0.186,-0.383 0,0" /></g><g
           transform="translate(102.8271,20.0872)"
           id="g98"><path
             id="path100"
             style="fill:#ffffff;fill-opacity:1;fill-rule:nonzero;stroke:none"
             d="M 0,0 V 4.071 H -0.892 V 5.092 H 0 V 7.02 H 1.166 V 5.092 H 2.057 V 4.071 H 1.166 V 0 Z" /></g><g
           transform="translate(105.7432,21.0111)"
           id="g102"><path
             id="path104"
             style="fill:#ffffff;fill-opacity:1;fill-rule:nonzero;stroke:none"
             d="m 0,0 0.967,0.526 c 0.072,-0.254 0.204,-0.447 0.397,-0.58 0.194,-0.133 0.443,-0.198 0.747,-0.198 0.261,0 0.466,0.06 0.615,0.18 0.149,0.12 0.223,0.283 0.223,0.491 0,0.275 -0.265,0.512 -0.795,0.709 C 1.975,1.192 1.837,1.246 1.74,1.289 1.196,1.515 0.815,1.744 0.599,1.977 0.382,2.209 0.274,2.492 0.274,2.825 c 0,0.455 0.178,0.823 0.534,1.107 0.357,0.283 0.828,0.423 1.416,0.423 0.394,0 0.731,-0.072 1.012,-0.216 C 3.517,3.993 3.722,3.787 3.851,3.518 L 3.024,2.949 C 2.963,3.109 2.856,3.238 2.705,3.333 2.552,3.428 2.376,3.475 2.175,3.475 1.953,3.475 1.775,3.422 1.641,3.316 1.506,3.211 1.439,3.07 1.439,2.895 1.439,2.63 1.74,2.389 2.342,2.17 2.532,2.102 2.678,2.047 2.782,2.004 3.251,1.817 3.587,1.606 3.79,1.372 3.992,1.138 4.093,0.845 4.093,0.494 4.093,-0.015 3.908,-0.413 3.54,-0.701 3.171,-0.989 2.662,-1.133 2.014,-1.133 1.517,-1.133 1.103,-1.04 0.773,-0.854 0.444,-0.668 0.186,-0.383 0,0" /></g><g
           transform="translate(115.373,20.0872)"
           id="g106"><path
             id="path108"
             style="fill:#ffffff;fill-opacity:1;fill-rule:nonzero;stroke:none"
             d="M 0,0 V 4.071 H -0.892 V 5.092 H 0 v 1.364 c 0,0.677 0.141,1.177 0.422,1.499 0.28,0.322 0.717,0.483 1.307,0.483 0.125,0 0.254,-0.009 0.387,-0.027 C 2.248,8.394 2.383,8.364 2.519,8.325 V 7.272 C 2.426,7.326 2.332,7.366 2.237,7.394 2.142,7.42 2.046,7.434 1.949,7.434 1.67,7.434 1.47,7.348 1.348,7.176 1.227,7.004 1.165,6.714 1.165,6.306 V 5.092 H 2.39 V 4.071 H 1.165 V 0 Z" /></g><g
           transform="translate(123.0215,22.6165)"
           id="g110"><path
             id="path112"
             style="fill:#ffffff;fill-opacity:1;fill-rule:nonzero;stroke:none"
             d="M 0,0 C 0,0.473 -0.152,0.873 -0.457,1.201 -0.761,1.528 -1.134,1.692 -1.574,1.692 -2.011,1.692 -2.383,1.528 -2.688,1.201 -2.995,0.873 -3.147,0.473 -3.147,0 c 0,-0.473 0.152,-0.872 0.459,-1.2 0.305,-0.327 0.677,-0.491 1.114,-0.491 0.437,0 0.808,0.164 1.114,0.491 C -0.153,-0.872 0,-0.473 0,0 m -4.378,0.012 c 0,0.372 0.071,0.723 0.212,1.054 0.142,0.331 0.345,0.626 0.61,0.884 0.261,0.254 0.562,0.449 0.903,0.585 0.34,0.137 0.696,0.205 1.068,0.205 0.384,0 0.744,-0.068 1.082,-0.205 C -0.164,2.399 0.14,2.199 0.408,1.934 0.677,1.673 0.881,1.377 1.021,1.048 1.16,0.719 1.229,0.373 1.229,0.012 1.229,-0.365 1.161,-0.718 1.022,-1.047 0.885,-1.376 0.684,-1.668 0.419,-1.922 0.14,-2.191 -0.17,-2.395 -0.511,-2.532 c -0.34,-0.138 -0.698,-0.206 -1.074,-0.206 -0.368,0 -0.723,0.068 -1.063,0.206 -0.34,0.137 -0.643,0.338 -0.908,0.598 -0.268,0.266 -0.472,0.563 -0.612,0.893 -0.14,0.329 -0.21,0.68 -0.21,1.053" /></g><g
           transform="translate(127.0918,24.3685)"
           id="g114"><path
             id="path116"
             style="fill:#ffffff;fill-opacity:1;fill-rule:nonzero;stroke:none"
             d="m 0,0 c 0.126,0.336 0.291,0.585 0.497,0.746 0.206,0.161 0.461,0.242 0.766,0.242 0.164,0 0.326,-0.02 0.486,-0.059 C 1.907,0.89 2.063,0.832 2.218,0.757 L 1.8,-0.231 C 1.699,-0.16 1.591,-0.107 1.475,-0.073 1.358,-0.039 1.229,-0.021 1.085,-0.021 0.698,-0.021 0.421,-0.177 0.253,-0.486 0.084,-0.796 0,-1.316 0,-2.047 v -2.234 h -1.165 v 5.102 l 1.165,0 z" /></g><g
           transform="translate(137.832,22.6497)"
           id="g118"><path
             id="path120"
             style="fill:#ffffff;fill-opacity:1;fill-rule:nonzero;stroke:none"
             d="m 0,0 c 0,0.525 -0.122,0.936 -0.367,1.229 -0.245,0.294 -0.588,0.441 -1.029,0.441 -0.44,0 -0.787,-0.151 -1.04,-0.454 -0.252,-0.303 -0.378,-0.722 -0.378,-1.259 0,-0.541 0.122,-0.958 0.365,-1.252 0.244,-0.294 0.588,-0.44 1.031,-0.44 0.423,0 0.765,0.158 1.026,0.475 C -0.13,-0.943 0,-0.523 0,0 m -0.031,5.763 h 1.165 v -8.326 h -1.165 v 0.661 C -0.239,-2.195 -0.482,-2.414 -0.76,-2.557 -1.037,-2.7 -1.354,-2.771 -1.713,-2.771 c -0.72,0 -1.286,0.246 -1.7,0.738 -0.413,0.492 -0.62,1.166 -0.62,2.021 0,0.814 0.211,1.47 0.634,1.969 0.422,0.5 0.973,0.75 1.654,0.75 0.415,0 0.77,-0.087 1.066,-0.261 0.295,-0.174 0.511,-0.424 0.648,-0.749 z" /></g><g
           transform="translate(144.7129,23.2455)"
           id="g122"><path
             id="path124"
             style="fill:#ffffff;fill-opacity:1;fill-rule:nonzero;stroke:none"
             d="M 0,0 C -0.047,0.365 -0.187,0.644 -0.419,0.835 -0.651,1.026 -0.971,1.123 -1.375,1.123 -1.758,1.123 -2.066,1.029 -2.299,0.844 -2.531,0.657 -2.694,0.376 -2.788,0 Z m 1.208,-0.784 h -4.07 c 0.028,-0.477 0.17,-0.848 0.424,-1.114 0.253,-0.267 0.592,-0.401 1.015,-0.401 0.375,0 0.689,0.079 0.94,0.236 0.251,0.158 0.468,0.413 0.655,0.763 L 1.155,-1.848 C 0.868,-2.359 0.514,-2.741 0.091,-2.992 c -0.422,-0.25 -0.918,-0.375 -1.487,-0.375 -0.817,0 -1.466,0.248 -1.951,0.746 -0.482,0.498 -0.724,1.162 -0.724,1.992 0,0.799 0.25,1.455 0.749,1.969 0.5,0.514 1.141,0.771 1.926,0.771 0.82,0 1.458,-0.235 1.917,-0.704 0.458,-0.469 0.687,-1.126 0.687,-1.971 z" /></g><g
           transform="translate(147.5752,20.0872)"
           id="g126"><path
             id="path128"
             style="fill:#ffffff;fill-opacity:1;fill-rule:nonzero;stroke:none"
             d="M 0,0 V 5.092 H 1.096 V 4.26 C 1.328,4.61 1.603,4.866 1.917,5.027 2.232,5.188 2.616,5.27 3.067,5.27 3.446,5.27 3.77,5.209 4.036,5.089 4.303,4.969 4.512,4.791 4.662,4.555 4.752,4.415 4.816,4.252 4.855,4.066 4.895,3.88 4.915,3.554 4.915,3.088 V 0 H 3.738 V 2.615 C 3.738,3.285 3.657,3.73 3.494,3.95 3.331,4.171 3.042,4.281 2.626,4.281 2.354,4.281 2.111,4.23 1.898,4.131 1.686,4.03 1.519,3.889 1.396,3.706 1.311,3.584 1.251,3.428 1.217,3.236 1.183,3.045 1.165,2.739 1.165,2.32 V 0 Z" /></g><g
           transform="translate(154.7568,20.0872)"
           id="g130"><path
             id="path132"
             style="fill:#ffffff;fill-opacity:1;fill-rule:nonzero;stroke:none"
             d="M 0,0 V 4.071 H -0.893 V 5.092 H 0 V 7.02 H 1.165 V 5.092 H 2.057 V 4.071 H 1.165 V 0 Z" /></g><path
           id="path134"
           style="fill:#ffffff;fill-opacity:1;fill-rule:nonzero;stroke:none"
           d="m 158.312,25.179 h 1.166 v -5.092 h -1.166 z m -0.157,2.202 c 0,0.197 0.074,0.367 0.218,0.511 0.146,0.143 0.318,0.215 0.519,0.215 0.208,0 0.38,-0.07 0.518,-0.207 0.138,-0.138 0.206,-0.311 0.206,-0.519 0,-0.208 -0.069,-0.382 -0.209,-0.523 -0.139,-0.142 -0.311,-0.212 -0.515,-0.212 -0.201,0 -0.373,0.072 -0.519,0.217 -0.144,0.145 -0.218,0.318 -0.218,0.518" /><g
           transform="translate(160.9971,21.0111)"
           id="g136"><path
             id="path138"
             style="fill:#ffffff;fill-opacity:1;fill-rule:nonzero;stroke:none"
             d="M 0,0 0.967,0.526 C 1.038,0.272 1.17,0.079 1.363,-0.054 1.557,-0.187 1.806,-0.252 2.11,-0.252 c 0.262,0 0.467,0.06 0.616,0.18 0.148,0.12 0.222,0.283 0.222,0.491 0,0.275 -0.264,0.512 -0.795,0.709 C 1.975,1.192 1.836,1.246 1.74,1.289 1.195,1.515 0.815,1.744 0.599,1.977 0.382,2.209 0.273,2.492 0.273,2.825 c 0,0.455 0.178,0.823 0.535,1.107 0.356,0.283 0.828,0.423 1.415,0.423 0.394,0 0.731,-0.072 1.012,-0.216 C 3.517,3.993 3.722,3.787 3.851,3.518 L 3.023,2.949 C 2.963,3.109 2.856,3.238 2.704,3.333 2.552,3.428 2.375,3.475 2.175,3.475 1.953,3.475 1.774,3.422 1.641,3.316 1.506,3.211 1.439,3.07 1.439,2.895 1.439,2.63 1.74,2.389 2.342,2.17 2.531,2.102 2.678,2.047 2.781,2.004 3.251,1.817 3.587,1.606 3.789,1.372 3.991,1.138 4.092,0.845 4.092,0.494 4.092,-0.015 3.908,-0.413 3.539,-0.701 3.17,-0.989 2.662,-1.133 2.014,-1.133 1.516,-1.133 1.103,-1.04 0.773,-0.854 0.443,-0.668 0.186,-0.383 0,0" /></g><g
           transform="translate(166.9795,20.0872)"
           id="g140"><path
             id="path142"
             style="fill:#ffffff;fill-opacity:1;fill-rule:nonzero;stroke:none"
             d="M 0,0 V 4.071 H -0.893 V 5.092 H 0 V 7.02 H 1.165 V 5.092 H 2.057 V 4.071 H 1.165 V 0 Z" /></g><g
           transform="translate(169.8955,21.0111)"
           id="g144"><path
             id="path146"
             style="fill:#ffffff;fill-opacity:1;fill-rule:nonzero;stroke:none"
             d="M 0,0 0.967,0.526 C 1.038,0.272 1.17,0.079 1.363,-0.054 1.557,-0.187 1.806,-0.252 2.11,-0.252 c 0.262,0 0.467,0.06 0.616,0.18 0.148,0.12 0.222,0.283 0.222,0.491 0,0.275 -0.264,0.512 -0.795,0.709 C 1.975,1.192 1.836,1.246 1.74,1.289 1.195,1.515 0.815,1.744 0.599,1.977 0.382,2.209 0.273,2.492 0.273,2.825 c 0,0.455 0.178,0.823 0.535,1.107 0.356,0.283 0.828,0.423 1.415,0.423 0.394,0 0.731,-0.072 1.012,-0.216 C 3.517,3.993 3.722,3.787 3.851,3.518 L 3.023,2.949 C 2.963,3.109 2.856,3.238 2.704,3.333 2.552,3.428 2.375,3.475 2.175,3.475 1.953,3.475 1.774,3.422 1.641,3.316 1.506,3.211 1.439,3.07 1.439,2.895 1.439,2.63 1.74,2.389 2.342,2.17 2.531,2.102 2.678,2.047 2.781,2.004 3.251,1.817 3.587,1.606 3.789,1.372 3.991,1.138 4.092,0.845 4.092,0.494 4.092,-0.015 3.908,-0.413 3.539,-0.701 3.17,-0.989 2.662,-1.133 2.014,-1.133 1.516,-1.133 1.103,-1.04 0.773,-0.854 0.443,-0.668 0.186,-0.383 0,0" /></g><g
           transform="translate(123.4515,117.3671)"
           id="g148"><path
             id="path150"
             style="fill:#fff200;fill-opacity:1;fill-rule:nonzero;stroke:none"
             d="M 0,0 H 6.323 C 6.465,0 6.577,0.136 6.571,0.3 6.524,1.621 6.147,6.862 3.162,6.862 c 0,0 -3.323,0.547 -3.413,-6.563 C -0.253,0.139 -0.139,0 0,0" /></g><g
           transform="translate(123.5734,112.8854)"
           id="g152"><path
             id="path154"
             style="fill:#fff200;fill-opacity:1;fill-rule:nonzero;stroke:none"
             d="m 0,0 h 6.366 c 0.207,0 0.375,0.168 0.375,0.375 v 2.016 c 0,0.207 -0.168,0.375 -0.375,0.375 H 0 c -0.207,0 -0.375,-0.168 -0.375,-0.375 V 0.375 C -0.375,0.168 -0.207,0 0,0" /></g><g
           transform="translate(123.5734,108.4038)"
           id="g156"><path
             id="path158"
             style="fill:#fff200;fill-opacity:1;fill-rule:nonzero;stroke:none"
             d="m 0,0 h 6.366 c 0.207,0 0.375,0.168 0.375,0.375 v 2.016 c 0,0.207 -0.168,0.375 -0.375,0.375 H 0 c -0.207,0 -0.375,-0.168 -0.375,-0.375 V 0.375 C -0.375,0.168 -0.207,0 0,0" /></g><g
           transform="translate(99.9632,116.6483)"
           id="g160"><path
             id="path162"
             style="fill:#fff200;fill-opacity:1;fill-rule:nonzero;stroke:none"
             d="m 0,0 6.311,-0.395 c 0.141,-0.009 0.262,0.12 0.266,0.284 0.035,1.322 -0.013,6.576 -2.992,6.762 0,0 -3.283,0.754 -3.817,-6.337 C -0.244,0.154 -0.139,0.009 0,0" /></g><g
           transform="translate(99.8049,112.1678)"
           id="g164"><path
             id="path166"
             style="fill:#fff200;fill-opacity:1;fill-rule:nonzero;stroke:none"
             d="M 0,0 6.353,-0.398 C 6.56,-0.41 6.738,-0.253 6.751,-0.047 L 6.877,1.965 C 6.89,2.172 6.733,2.35 6.526,2.363 L 0.173,2.76 C -0.034,2.773 -0.212,2.616 -0.225,2.409 L -0.351,0.398 C -0.364,0.191 -0.207,0.013 0,0" /></g><g
           transform="translate(99.5251,107.6949)"
           id="g168"><path
             id="path170"
             style="fill:#fff200;fill-opacity:1;fill-rule:nonzero;stroke:none"
             d="m 0,0 6.353,-0.397 c 0.207,-0.013 0.385,0.144 0.398,0.35 L 6.877,1.965 C 6.89,2.172 6.733,2.35 6.526,2.363 L 0.173,2.76 C -0.034,2.773 -0.212,2.616 -0.225,2.409 L -0.351,0.398 C -0.364,0.191 -0.207,0.013 0,0" /></g><g
           transform="translate(145.7242,113.3997)"
           id="g172"><path
             id="path174"
             style="fill:#fff200;fill-opacity:1;fill-rule:nonzero;stroke:none"
             d="m 0,0 6.17,1.264 c 0.139,0.028 0.221,0.184 0.182,0.343 -0.311,1.285 -1.73,6.344 -4.643,5.748 0,0 -3.353,-0.128 -2.014,-7.112 C -0.275,0.085 -0.136,-0.028 0,0" /></g><g
           transform="translate(145.8969,111.3005)"
           id="g176"><path
             id="path178"
             style="fill:#fff200;fill-opacity:1;fill-rule:nonzero;stroke:none"
             d="m 0,0 0.404,-1.975 c 0.042,-0.202 0.24,-0.333 0.443,-0.292 l 6.209,1.272 c 0.203,0.042 0.334,0.24 0.292,0.443 L 6.944,1.422 C 6.902,1.625 6.704,1.756 6.501,1.715 L 0.292,0.443 C 0.089,0.401 -0.042,0.203 0,0" /></g><g
           transform="translate(146.7963,106.9101)"
           id="g180"><path
             id="path182"
             style="fill:#fff200;fill-opacity:1;fill-rule:nonzero;stroke:none"
             d="m 0,0 0.404,-1.975 c 0.042,-0.202 0.24,-0.333 0.443,-0.292 l 6.209,1.272 c 0.203,0.042 0.334,0.24 0.292,0.443 L 6.944,1.422 C 6.902,1.625 6.704,1.756 6.501,1.715 L 0.292,0.443 C 0.089,0.401 -0.042,0.203 0,0" /></g><g
           transform="translate(77.06,114.3328)"
           id="g184"><path
             id="path186"
             style="fill:#fff200;fill-opacity:1;fill-rule:nonzero;stroke:none"
             d="M 0,0 6.17,-1.264 C 6.306,-1.292 6.445,-1.179 6.475,-1.021 7.814,5.963 4.461,6.091 4.461,6.091 1.549,6.687 0.13,1.628 -0.182,0.343 -0.221,0.184 -0.139,0.028 0,0" /></g><g
           transform="translate(76.0014,109.9749)"
           id="g188"><path
             id="path190"
             style="fill:#fff200;fill-opacity:1;fill-rule:nonzero;stroke:none"
             d="M 0,0 6.209,-1.272 C 6.412,-1.313 6.61,-1.183 6.652,-0.98 L 7.056,0.995 C 7.098,1.198 6.967,1.396 6.764,1.437 L 0.555,2.709 C 0.352,2.751 0.154,2.62 0.112,2.417 L -0.292,0.443 C -0.334,0.24 -0.203,0.042 0,0" /></g><g
           transform="translate(75.102,105.5845)"
           id="g192"><path
             id="path194"
             style="fill:#fff200;fill-opacity:1;fill-rule:nonzero;stroke:none"
             d="M 0,0 6.209,-1.272 C 6.412,-1.313 6.61,-1.183 6.652,-0.98 L 7.056,0.995 C 7.098,1.198 6.967,1.396 6.764,1.437 L 0.555,2.709 C 0.352,2.751 0.154,2.62 0.112,2.417 L -0.292,0.443 C -0.334,0.24 -0.203,0.042 0,0" /></g><g
           transform="translate(162.808,80.1425)"
           id="g196"><path
             id="path198"
             style="fill:#fff200;fill-opacity:1;fill-rule:nonzero;stroke:none"
             d="m 0,0 c 0,0 0,-0.53 -0.245,-1.034 -0.471,-0.971 -1.879,-0.984 -2.441,-0.063 -0.407,0.666 -0.526,1.464 -0.322,2.196 0.34,1.22 0.979,4.468 -0.17,9.003 0,0 -0.818,2.721 0.669,2.552 C -1.022,12.485 0,10.442 0,8.513 Z m -8.305,-4.936 c -0.53,0.033 -0.751,0.542 -0.751,0.542 0,0 -0.705,1.102 0.203,3.145 0.908,2.044 1.725,9.847 0.924,11.8 -0.117,0.284 -0.003,0.601 0.214,0.818 0.738,0.733 2.397,2.151 2.831,0.561 0.562,-2.062 1.482,-17.168 -3.421,-16.866 m -1.736,15.835 V 0.212 c -0.562,-5.063 -4.687,-6 -4.687,-6 -2.813,-0.282 -2.719,3.468 -2.719,3.468 V 8.299 c 0.01,0.108 0.02,0.218 0.03,0.325 0.716,3.657 3.425,5.116 4.544,5.572 0.344,0.14 0.73,0.163 1.078,0.033 1.832,-0.681 1.754,-3.33 1.754,-3.33 m -9.76,-3.094 V -5.03 c 0,-0.154 -0.064,-0.298 -0.175,-0.406 -0.637,-0.619 -2.111,-1.693 -4.579,-1.549 0,0 -2.425,-0.066 -4.074,1.591 -0.228,0.23 -0.335,0.555 -0.335,0.879 v 8.117 c 0,0.057 0.003,0.107 0.01,0.163 0.1,0.756 1.033,6.521 6.506,8.129 0.119,0 0.24,10e-4 0.359,10e-4 2.774,-0.824 2.288,-4.09 2.288,-4.09 M -31.603,-5.911 c 0,-0.508 -0.236,-0.981 -0.641,-1.287 -1.021,-0.774 -3.294,-2.046 -7.047,-1.872 0,0 -3.636,-0.079 -6.19,1.868 -0.408,0.311 -0.654,0.791 -0.654,1.303 v 9.98 c 0,0.047 0.005,0.116 0.011,0.163 0.187,1.384 0.889,8.934 10.302,10.124 0,0 4.219,1.002 4.219,-9.375 z m -17.703,1.018 c 0,-0.039 -0.003,-0.066 -0.011,-0.104 -0.102,-0.459 -1.014,-3.548 -7.313,-4.089 -5.618,-0.483 -8.532,2.313 -9.224,3.088 -0.104,0.116 -0.148,0.26 -0.132,0.415 0.193,1.873 0.452,13.393 0.481,14.704 0.002,0.081 0.021,0.16 0.058,0.233 0.404,0.802 3.036,5.648 7.579,5.459 4.951,-0.207 8.458,-5.28 8.562,-8.108 0.098,-2.705 0.008,-10.898 0,-11.598 m -18.124,0.378 c 0,-0.324 -0.107,-0.649 -0.335,-0.879 -1.649,-1.657 -4.074,-1.591 -4.074,-1.591 -2.468,-0.144 -3.942,0.93 -4.579,1.549 -0.111,0.108 -0.175,0.252 -0.175,0.406 V 7.805 c 0,0 -0.032,3.462 2.288,4.09 0.119,0 0.24,-10e-4 0.359,-10e-4 5.473,-1.608 6.406,-7.373 6.506,-8.129 0.007,-0.056 0.01,-0.106 0.01,-0.163 z m -15.34,-1.273 c 0,0 -4.125,0.937 -4.687,6 v 10.687 c 0,0 -0.078,2.649 1.754,3.33 0.348,0.13 0.734,0.107 1.078,-0.033 1.119,-0.456 3.828,-1.915 4.544,-5.572 0.01,-0.107 0.02,-0.217 0.03,-0.325 V -2.32 c 0,0 0.094,-3.75 -2.719,-3.468 m -6.319,1.394 c 0,0 -0.221,-0.509 -0.751,-0.542 -4.903,-0.302 -3.983,14.804 -3.421,16.866 0.434,1.59 2.093,0.172 2.831,-0.561 0.217,-0.217 0.333,-0.535 0.214,-0.818 -1.057,-2.521 0.016,-9.756 0.924,-11.8 0.908,-2.043 0.203,-3.145 0.203,-3.145 m -5.277,14.496 c -1.341,-5.296 -0.32,-8.608 -0.108,-9.213 0.024,-0.068 0.105,-0.356 0.096,-0.427 -0.06,-0.476 -0.196,-2.392 -1.464,-2.392 -1.509,0 -1.702,1.93 -1.702,1.93 v 8.513 c 0,1.929 1.022,3.972 2.509,4.141 1.487,0.169 0.669,-2.552 0.669,-2.552 m 90.894,11.273 c -1.315,0.146 -2.608,0.284 -3.89,0.417 -0.242,0.026 -0.437,0.204 -0.486,0.442 l -0.346,1.69 c -0.104,0.505 -0.596,0.83 -1.101,0.727 l -5.663,-1.16 c -0.203,-0.042 -0.333,-0.24 -0.292,-0.443 l 0.101,-0.49 c -5.988,0.547 -11.588,0.963 -16.826,1.273 -0.294,0.018 -0.519,0.261 -0.519,0.555 v 1.912 c 0,0.515 -0.417,0.932 -0.932,0.932 h -5.251 c -0.515,0 -0.933,-0.417 -0.933,-0.932 V 24.8 c 0,-0.317 -0.269,-0.568 -0.585,-0.555 -5.824,0.238 -11.129,0.339 -15.934,0.336 -0.321,-0.001 -0.569,0.27 -0.549,0.591 0.032,0.514 -0.358,0.956 -0.872,0.988 l -5.241,0.328 c -0.514,0.032 -0.957,-0.358 -0.989,-0.872 l -0.039,-0.625 c -0.018,-0.288 -0.259,-0.514 -0.547,-0.522 -7.46,-0.203 -13.401,-0.657 -17.955,-1.157 -0.057,-0.006 -0.112,-0.003 -0.168,0.009 l -4.878,0.999 c -0.504,0.103 -0.997,-0.222 -1.1,-0.727 l -0.155,-0.752 c -0.046,-0.227 -0.235,-0.401 -0.463,-0.439 -3.264,-0.535 -4.901,-0.972 -5.086,-1.022 -0.014,-0.004 -0.025,-0.008 -0.04,-0.013 -10.278,-3.501 -6.214,-11.472 -5.619,-12.531 0.046,-0.082 0.068,-0.172 0.068,-0.267 V 0.094 c 0,0 -0.05,-4.049 2.21,-4.313 0,0 1.527,-0.558 2.51,0.344 0.297,0.273 0.76,0.216 0.918,-0.154 0.534,-1.249 1.752,-3.19 4.164,-3.19 0,0 1.392,-0.112 2.216,1.046 0.242,0.34 0.72,0.399 0.947,0.049 0.551,-0.851 1.705,-1.921 4.044,-2.032 0,0 1.701,-0.281 2.88,1.187 0.257,0.32 0.75,0.273 0.934,-0.094 0.509,-1.017 1.996,-1.955 6.277,-1.937 0,0 2.469,-0.141 4.606,1.129 0.264,0.157 0.596,0.082 0.762,-0.176 0.687,-1.072 2.934,-3.324 9.623,-3.109 0,0 5.285,-0.375 8.745,3 h 0.192 c 3.46,-3.375 8.745,-3 8.745,-3 6.689,-0.215 8.936,2.037 9.623,3.109 0.166,0.258 0.5,0.336 0.762,0.176 1.989,-1.215 4.606,-1.129 4.606,-1.129 4.391,-0.086 5.768,0.92 6.277,1.937 0.184,0.367 0.677,0.415 0.934,0.094 1.199,-1.497 2.88,-1.187 2.88,-1.187 2.52,0.266 3.493,1.181 4.044,2.032 0.227,0.35 0.734,0.31 0.947,-0.049 0.821,-1.383 2.216,-1.046 2.216,-1.046 2.715,0.315 3.63,1.941 4.164,3.19 0.158,0.37 0.632,0.439 0.918,0.154 0.819,-0.815 2.51,-0.344 2.51,-0.344 2.358,0.409 2.21,4.313 2.21,4.313 v 8.491 c 0,0.087 0.019,0.17 0.058,0.248 0.591,1.19 5.284,11.332 -5.632,12.542" /></g></g></g></g></svg>